<mxfile host="app.diagrams.net" agent="Mozilla/5.0 (Windows NT 10.0; Win64; x64) AppleWebKit/537.36 (KHTML, like Gecko) Chrome/128.0.0.0 Safari/537.36" version="24.7.17">
  <diagram id="R2lEEEUBdFMjLlhIrx00" name="Page-1">
    <mxGraphModel dx="880" dy="468" grid="1" gridSize="10" guides="1" tooltips="1" connect="1" arrows="1" fold="1" page="1" pageScale="1" pageWidth="850" pageHeight="1100" math="0" shadow="0" extFonts="Permanent Marker^https://fonts.googleapis.com/css?family=Permanent+Marker">
      <root>
        <mxCell id="0" />
        <mxCell id="1" parent="0" />
        <mxCell id="y2ACZtMQKqT9Afyx9Rg--2" value="&lt;font size=&quot;3&quot;&gt;User&lt;/font&gt;" style="rounded=0;whiteSpace=wrap;html=1;" vertex="1" parent="1">
          <mxGeometry x="140" y="360" width="130" height="50" as="geometry" />
        </mxCell>
        <mxCell id="y2ACZtMQKqT9Afyx9Rg--4" value="&lt;font size=&quot;3&quot;&gt;name&lt;/font&gt;" style="ellipse;whiteSpace=wrap;html=1;" vertex="1" parent="1">
          <mxGeometry x="30" y="170" width="90" height="40" as="geometry" />
        </mxCell>
        <mxCell id="y2ACZtMQKqT9Afyx9Rg--5" value="&lt;font size=&quot;3&quot;&gt;email&lt;/font&gt;" style="ellipse;whiteSpace=wrap;html=1;" vertex="1" parent="1">
          <mxGeometry x="80" y="120" width="90" height="50" as="geometry" />
        </mxCell>
        <mxCell id="y2ACZtMQKqT9Afyx9Rg--8" value="&lt;font size=&quot;3&quot;&gt;password&lt;/font&gt;" style="ellipse;whiteSpace=wrap;html=1;" vertex="1" parent="1">
          <mxGeometry x="180" y="100" width="90" height="60" as="geometry" />
        </mxCell>
        <mxCell id="y2ACZtMQKqT9Afyx9Rg--10" value="&lt;font size=&quot;3&quot;&gt;role&lt;/font&gt;" style="ellipse;whiteSpace=wrap;html=1;" vertex="1" parent="1">
          <mxGeometry x="290" y="110" width="70" height="60" as="geometry" />
        </mxCell>
        <mxCell id="y2ACZtMQKqT9Afyx9Rg--12" value="&lt;font size=&quot;3&quot;&gt;address&lt;/font&gt;" style="ellipse;whiteSpace=wrap;html=1;" vertex="1" parent="1">
          <mxGeometry x="335" y="170" width="75" height="50" as="geometry" />
        </mxCell>
        <mxCell id="y2ACZtMQKqT9Afyx9Rg--14" value="&lt;font size=&quot;3&quot;&gt;gender&lt;/font&gt;" style="ellipse;whiteSpace=wrap;html=1;" vertex="1" parent="1">
          <mxGeometry x="350" y="230" width="70" height="50" as="geometry" />
        </mxCell>
        <mxCell id="y2ACZtMQKqT9Afyx9Rg--17" value="" style="endArrow=none;html=1;rounded=0;exitX=0.5;exitY=0;exitDx=0;exitDy=0;entryX=1;entryY=1;entryDx=0;entryDy=0;" edge="1" parent="1" source="y2ACZtMQKqT9Afyx9Rg--2" target="y2ACZtMQKqT9Afyx9Rg--5">
          <mxGeometry width="50" height="50" relative="1" as="geometry">
            <mxPoint x="450" y="270" as="sourcePoint" />
            <mxPoint x="180" y="180" as="targetPoint" />
          </mxGeometry>
        </mxCell>
        <mxCell id="y2ACZtMQKqT9Afyx9Rg--19" value="" style="endArrow=none;html=1;rounded=0;exitX=0.5;exitY=0;exitDx=0;exitDy=0;" edge="1" parent="1" source="y2ACZtMQKqT9Afyx9Rg--2">
          <mxGeometry width="50" height="50" relative="1" as="geometry">
            <mxPoint x="290" y="260" as="sourcePoint" />
            <mxPoint x="350" y="260" as="targetPoint" />
          </mxGeometry>
        </mxCell>
        <mxCell id="y2ACZtMQKqT9Afyx9Rg--20" value="" style="endArrow=none;html=1;rounded=0;exitX=0.5;exitY=0;exitDx=0;exitDy=0;entryX=0.5;entryY=1;entryDx=0;entryDy=0;" edge="1" parent="1" source="y2ACZtMQKqT9Afyx9Rg--2" target="y2ACZtMQKqT9Afyx9Rg--8">
          <mxGeometry width="50" height="50" relative="1" as="geometry">
            <mxPoint x="290" y="260" as="sourcePoint" />
            <mxPoint x="240" y="160" as="targetPoint" />
          </mxGeometry>
        </mxCell>
        <mxCell id="y2ACZtMQKqT9Afyx9Rg--21" value="" style="endArrow=none;html=1;rounded=0;exitX=0.5;exitY=0;exitDx=0;exitDy=0;entryX=0.053;entryY=0.78;entryDx=0;entryDy=0;entryPerimeter=0;" edge="1" parent="1" source="y2ACZtMQKqT9Afyx9Rg--2" target="y2ACZtMQKqT9Afyx9Rg--12">
          <mxGeometry width="50" height="50" relative="1" as="geometry">
            <mxPoint x="450" y="270" as="sourcePoint" />
            <mxPoint x="350" y="210" as="targetPoint" />
          </mxGeometry>
        </mxCell>
        <mxCell id="y2ACZtMQKqT9Afyx9Rg--22" value="" style="endArrow=none;html=1;rounded=0;exitX=0.5;exitY=0;exitDx=0;exitDy=0;entryX=0.3;entryY=0.917;entryDx=0;entryDy=0;entryPerimeter=0;" edge="1" parent="1" source="y2ACZtMQKqT9Afyx9Rg--2" target="y2ACZtMQKqT9Afyx9Rg--10">
          <mxGeometry width="50" height="50" relative="1" as="geometry">
            <mxPoint x="450" y="270" as="sourcePoint" />
            <mxPoint x="310" y="170" as="targetPoint" />
          </mxGeometry>
        </mxCell>
        <mxCell id="y2ACZtMQKqT9Afyx9Rg--23" value="" style="endArrow=none;html=1;rounded=0;exitX=0.5;exitY=0;exitDx=0;exitDy=0;entryX=0.933;entryY=0.7;entryDx=0;entryDy=0;entryPerimeter=0;" edge="1" parent="1" source="y2ACZtMQKqT9Afyx9Rg--2" target="y2ACZtMQKqT9Afyx9Rg--4">
          <mxGeometry width="50" height="50" relative="1" as="geometry">
            <mxPoint x="450" y="270" as="sourcePoint" />
            <mxPoint x="500" y="220" as="targetPoint" />
          </mxGeometry>
        </mxCell>
        <mxCell id="y2ACZtMQKqT9Afyx9Rg--24" value="&lt;font size=&quot;3&quot;&gt;id&lt;/font&gt;" style="ellipse;whiteSpace=wrap;html=1;" vertex="1" parent="1">
          <mxGeometry x="20" y="220" width="90" height="40" as="geometry" />
        </mxCell>
        <mxCell id="y2ACZtMQKqT9Afyx9Rg--26" value="" style="endArrow=none;html=1;rounded=0;exitX=0.5;exitY=0;exitDx=0;exitDy=0;" edge="1" parent="1" source="y2ACZtMQKqT9Afyx9Rg--2" target="y2ACZtMQKqT9Afyx9Rg--24">
          <mxGeometry width="50" height="50" relative="1" as="geometry">
            <mxPoint x="450" y="270" as="sourcePoint" />
            <mxPoint x="500" y="220" as="targetPoint" />
          </mxGeometry>
        </mxCell>
        <mxCell id="y2ACZtMQKqT9Afyx9Rg--27" value="&lt;font size=&quot;3&quot;&gt;Notes&lt;/font&gt;" style="rounded=0;whiteSpace=wrap;html=1;" vertex="1" parent="1">
          <mxGeometry x="590" y="300" width="100" height="40" as="geometry" />
        </mxCell>
        <mxCell id="y2ACZtMQKqT9Afyx9Rg--28" value="&lt;font size=&quot;3&quot;&gt;title&lt;/font&gt;" style="ellipse;whiteSpace=wrap;html=1;" vertex="1" parent="1">
          <mxGeometry x="490" y="210" width="90" height="40" as="geometry" />
        </mxCell>
        <mxCell id="y2ACZtMQKqT9Afyx9Rg--29" value="&lt;font size=&quot;3&quot;&gt;id&lt;/font&gt;" style="ellipse;whiteSpace=wrap;html=1;" vertex="1" parent="1">
          <mxGeometry x="450" y="260" width="90" height="40" as="geometry" />
        </mxCell>
        <mxCell id="y2ACZtMQKqT9Afyx9Rg--30" value="&lt;font size=&quot;3&quot;&gt;user_id&lt;/font&gt;" style="ellipse;whiteSpace=wrap;html=1;" vertex="1" parent="1">
          <mxGeometry x="750" y="250" width="90" height="40" as="geometry" />
        </mxCell>
        <mxCell id="y2ACZtMQKqT9Afyx9Rg--31" value="&lt;font size=&quot;3&quot;&gt;date&lt;/font&gt;" style="ellipse;whiteSpace=wrap;html=1;" vertex="1" parent="1">
          <mxGeometry x="690" y="175" width="90" height="45" as="geometry" />
        </mxCell>
        <mxCell id="y2ACZtMQKqT9Afyx9Rg--32" value="&lt;font size=&quot;3&quot;&gt;content&lt;/font&gt;" style="ellipse;whiteSpace=wrap;html=1;" vertex="1" parent="1">
          <mxGeometry x="580" y="170" width="90" height="40" as="geometry" />
        </mxCell>
        <mxCell id="y2ACZtMQKqT9Afyx9Rg--33" value="" style="endArrow=none;html=1;rounded=0;exitX=0.5;exitY=0;exitDx=0;exitDy=0;" edge="1" parent="1" source="y2ACZtMQKqT9Afyx9Rg--27" target="y2ACZtMQKqT9Afyx9Rg--29">
          <mxGeometry width="50" height="50" relative="1" as="geometry">
            <mxPoint x="450" y="270" as="sourcePoint" />
            <mxPoint x="540" y="290" as="targetPoint" />
          </mxGeometry>
        </mxCell>
        <mxCell id="y2ACZtMQKqT9Afyx9Rg--34" value="" style="endArrow=none;html=1;rounded=0;entryX=0.767;entryY=1.025;entryDx=0;entryDy=0;entryPerimeter=0;" edge="1" parent="1" target="y2ACZtMQKqT9Afyx9Rg--28">
          <mxGeometry width="50" height="50" relative="1" as="geometry">
            <mxPoint x="640" y="300" as="sourcePoint" />
            <mxPoint x="550" y="300" as="targetPoint" />
          </mxGeometry>
        </mxCell>
        <mxCell id="y2ACZtMQKqT9Afyx9Rg--35" value="" style="endArrow=none;html=1;rounded=0;exitX=0.5;exitY=0;exitDx=0;exitDy=0;entryX=0.5;entryY=1;entryDx=0;entryDy=0;" edge="1" parent="1" source="y2ACZtMQKqT9Afyx9Rg--27" target="y2ACZtMQKqT9Afyx9Rg--32">
          <mxGeometry width="50" height="50" relative="1" as="geometry">
            <mxPoint x="660" y="320" as="sourcePoint" />
            <mxPoint x="560" y="310" as="targetPoint" />
          </mxGeometry>
        </mxCell>
        <mxCell id="y2ACZtMQKqT9Afyx9Rg--36" value="" style="endArrow=none;html=1;rounded=0;exitX=0.5;exitY=0;exitDx=0;exitDy=0;entryX=0.344;entryY=1;entryDx=0;entryDy=0;entryPerimeter=0;" edge="1" parent="1" source="y2ACZtMQKqT9Afyx9Rg--27" target="y2ACZtMQKqT9Afyx9Rg--31">
          <mxGeometry width="50" height="50" relative="1" as="geometry">
            <mxPoint x="670" y="330" as="sourcePoint" />
            <mxPoint x="570" y="320" as="targetPoint" />
          </mxGeometry>
        </mxCell>
        <mxCell id="y2ACZtMQKqT9Afyx9Rg--37" value="" style="endArrow=none;html=1;rounded=0;exitX=0.5;exitY=0;exitDx=0;exitDy=0;entryX=0.033;entryY=0.775;entryDx=0;entryDy=0;entryPerimeter=0;" edge="1" parent="1" source="y2ACZtMQKqT9Afyx9Rg--27" target="y2ACZtMQKqT9Afyx9Rg--30">
          <mxGeometry width="50" height="50" relative="1" as="geometry">
            <mxPoint x="680" y="340" as="sourcePoint" />
            <mxPoint x="580" y="330" as="targetPoint" />
          </mxGeometry>
        </mxCell>
        <mxCell id="y2ACZtMQKqT9Afyx9Rg--38" value="" style="edgeStyle=entityRelationEdgeStyle;fontSize=12;html=1;endArrow=ERoneToMany;rounded=0;exitX=1;exitY=0.5;exitDx=0;exitDy=0;entryX=0;entryY=0.5;entryDx=0;entryDy=0;" edge="1" parent="1" source="y2ACZtMQKqT9Afyx9Rg--2" target="y2ACZtMQKqT9Afyx9Rg--27">
          <mxGeometry width="100" height="100" relative="1" as="geometry">
            <mxPoint x="280" y="341" as="sourcePoint" />
            <mxPoint x="540" y="350" as="targetPoint" />
          </mxGeometry>
        </mxCell>
      </root>
    </mxGraphModel>
  </diagram>
</mxfile>
